<?xml version="1.0" standalone="no"?>
<!DOCTYPE svg PUBLIC "-//W3C//DTD SVG 20010904//EN"
 "http://www.w3.org/TR/2001/REC-SVG-20010904/DTD/svg10.dtd">
<svg version="1.0" xmlns="http://www.w3.org/2000/svg"
 width="1000.000000pt" height="1000.000000pt" viewBox="0 0 1000.000000 1000.000000"
 preserveAspectRatio="xMidYMid meet">
<metadata>
Created by potrace 1.14, written by Peter Selinger 2001-2017
</metadata>
<g transform="translate(0.000000,1000.000000) scale(0.100000,-0.100000)"
fill="#000000" stroke="none">
<path d="M3287 9831 c-23 -40 -23 -133 1 -153 33 -30 73 -29 104 2 23 24 28
37 28 79 0 31 -6 55 -15 65 -8 8 -15 19 -15 25 0 6 -19 11 -43 11 -37 0 -45
-4 -60 -29z"/>
<path d="M2388 9818 c-32 -32 -22 -79 20 -92 13 -4 22 -15 22 -26 0 -36 38
-49 140 -46 110 3 126 8 135 43 10 42 -27 73 -89 73 -48 0 -52 3 -66 33 -15
31 -17 32 -80 32 -49 1 -68 -3 -82 -17z"/>
<path d="M3388 9652 c-20 -11 -28 -25 -28 -44 0 -38 -14 -42 -33 -9 -30 51
-91 44 -109 -11 -2 -6 -24 -11 -49 -10 -24 0 -52 -2 -62 -5 -24 -6 -46 -53
-37 -78 8 -21 40 -53 40 -40 0 4 6 3 13 -2 12 -9 28 -9 167 3 42 3 91 2 112
-4 30 -8 42 -7 67 9 19 12 31 27 32 41 3 110 0 140 -18 153 -24 19 -62 18 -95
-3z"/>
<path d="M2470 9622 c-39 -19 -52 -50 -44 -102 6 -35 11 -41 50 -56 54 -20
108 -14 135 17 21 25 21 23 24 64 4 68 -92 113 -165 77z"/>
<path d="M7315 9572 c-33 -7 -45 -23 -45 -57 0 -35 14 -53 46 -58 10 -1 24 -5
29 -8 13 -8 73 -5 81 4 11 10 182 8 188 -2 4 -5 12 -8 19 -6 19 5 57 17 57 19
0 1 4 16 9 33 8 26 6 37 -9 55 -18 22 -24 23 -187 24 -92 0 -177 -1 -188 -4z"/>
<path d="M3644 9409 c-52 -15 -55 -24 -56 -197 0 -153 -1 -160 -24 -187 -35
-41 -32 -89 6 -125 27 -25 37 -28 82 -25 28 2 56 9 61 14 6 6 23 4 49 -6 89
-36 214 3 250 78 34 73 37 87 35 247 -2 159 -3 164 -26 183 -31 25 -81 24
-109 -1 -21 -20 -22 -29 -22 -185 0 -186 -3 -195 -71 -195 -46 0 -79 27 -80
68 0 15 -2 86 -2 158 -2 134 -7 153 -46 173 -9 4 -30 4 -47 0z"/>
<path d="M4225 9409 c-42 -12 -94 -60 -105 -97 -7 -25 -15 -286 -11 -365 1
-10 13 -29 27 -42 23 -21 37 -25 90 -25 56 0 65 3 83 26 12 15 21 37 21 50 0
24 -35 64 -56 64 -15 0 -20 61 -14 169 5 83 5 83 24 62 27 -30 91 -29 107 1
21 38 27 0 26 -167 0 -100 4 -169 11 -182 13 -24 54 -37 85 -27 48 15 50 24
49 222 0 103 -5 198 -10 212 -16 39 -54 78 -94 95 -33 13 -42 13 -81 0 -40
-13 -49 -13 -80 0 -20 8 -38 15 -39 14 -2 0 -17 -5 -33 -10z"/>
<path d="M4766 9408 c-131 -23 -204 -161 -128 -241 15 -15 37 -30 49 -33 13
-4 40 -15 60 -25 21 -10 54 -19 74 -19 40 0 73 -27 67 -57 -3 -15 -14 -19 -64
-21 -60 -3 -61 -2 -74 28 -15 37 -48 52 -93 45 -43 -8 -60 -31 -52 -75 15 -86
104 -140 228 -140 83 0 144 26 187 80 26 33 30 46 30 104 0 61 -2 68 -34 99
-28 28 -45 36 -90 41 -31 4 -56 11 -56 16 0 4 -23 11 -51 15 -44 6 -50 10 -47
29 4 31 88 36 115 7 29 -31 63 -40 103 -27 85 27 22 148 -90 171 -53 12 -81
12 -134 3z"/>
<path d="M5962 9408 c-53 -9 -101 -37 -141 -84 -33 -37 -39 -69 -17 -99 20
-28 104 -23 131 9 78 93 205 34 205 -95 0 -78 -67 -152 -121 -135 -8 2 -26 7
-41 10 -39 9 -34 28 12 48 47 19 61 57 39 97 -14 25 -20 26 -104 29 -50 2
-100 0 -112 -3 -55 -13 -63 -114 -16 -190 52 -82 128 -125 226 -125 122 0 220
65 252 167 22 68 17 183 -10 234 -10 19 -23 44 -29 56 -6 13 -15 23 -19 23 -5
0 -21 8 -35 19 -55 38 -141 54 -220 39z"/>
<path d="M7808 9402 l-33 -17 0 -195 0 -195 29 -46 c22 -35 39 -49 76 -62 60
-21 132 -22 171 -1 28 14 34 14 64 0 48 -23 89 -20 124 10 26 21 31 33 31 68
0 29 -6 47 -20 59 -22 19 -22 17 -24 208 -1 158 -10 179 -76 179 -67 0 -75
-20 -77 -188 -1 -80 -4 -156 -8 -169 -6 -26 -52 -53 -89 -53 -48 0 -56 29 -56
197 0 83 -4 163 -9 176 -14 36 -61 50 -103 29z"/>
<path d="M2150 9390 c-20 -20 -21 -30 -17 -203 3 -100 6 -188 7 -195 6 -24 70
-90 104 -106 44 -21 159 -22 179 -2 12 13 20 13 58 0 54 -19 99 -11 133 23 35
35 34 76 -1 109 l-28 26 0 165 c-1 160 -2 166 -24 184 -32 26 -77 24 -104 -3
-21 -22 -22 -31 -21 -168 0 -80 -3 -156 -8 -170 -15 -44 -84 -64 -123 -34 -18
14 -20 30 -25 188 -4 126 -9 177 -19 189 -20 25 -86 22 -111 -3z"/>
<path d="M2700 9403 c-29 -10 -70 -57 -70 -79 0 -29 37 -74 61 -74 10 0 39 5
64 12 70 19 74 7 75 -187 0 -122 3 -165 14 -181 20 -28 76 -30 110 -3 l27 21
-3 187 c-3 184 -4 188 -30 228 -35 53 -99 83 -175 82 -32 0 -65 -3 -73 -6z"/>
<path d="M3195 9403 c-40 -10 -102 -57 -123 -94 -20 -35 -22 -51 -22 -213 l0
-175 26 -20 c35 -28 132 -30 162 -3 32 26 37 63 12 95 -12 15 -28 27 -36 27
-11 0 -14 22 -14 114 0 133 7 146 74 146 74 0 79 -12 77 -203 -1 -152 0 -165
19 -182 26 -23 67 -27 102 -9 31 16 29 -3 29 251 1 121 -1 136 -22 170 -47 76
-101 104 -198 102 -36 -1 -75 -3 -86 -6z"/>
<path d="M5115 9395 c-61 -33 -72 -80 -28 -121 22 -20 33 -24 62 -18 51 10 81
8 95 -6 7 -7 11 -59 12 -143 3 -221 0 -205 37 -227 42 -26 49 -25 85 8 l30 28
-2 184 c-2 208 -9 230 -81 279 -47 32 -164 41 -210 16z"/>
<path d="M6382 9390 c-21 -20 -22 -29 -22 -184 0 -161 0 -163 -25 -184 -17
-15 -25 -32 -25 -55 0 -42 23 -70 72 -87 32 -12 42 -11 78 3 38 15 45 15 82 0
27 -11 56 -14 92 -10 51 5 136 41 136 57 0 5 6 15 13 22 25 25 35 103 33 260
-3 181 -10 198 -76 198 -62 0 -69 -17 -72 -166 -2 -183 -6 -212 -32 -229 -31
-21 -100 -2 -115 31 -6 15 -11 85 -11 174 0 137 -2 152 -20 170 -26 26 -80 26
-108 0z"/>
<path d="M6916 9401 c-4 -6 -11 -9 -16 -6 -4 3 -20 -9 -35 -27 -31 -36 -28
-72 8 -100 21 -16 39 -17 99 -2 19 4 32 0 47 -15 20 -20 22 -31 21 -174 -1
-84 1 -159 5 -169 9 -22 59 -42 87 -34 53 14 53 13 56 206 3 170 2 183 -19
225 -34 68 -86 99 -174 103 -47 3 -75 0 -79 -7z"/>
<path d="M7398 9399 c-49 -11 -104 -48 -118 -77 -14 -31 -13 -85 2 -100 7 -7
29 -12 49 -12 32 0 43 6 65 35 23 30 32 35 69 35 76 0 95 -19 53 -54 -13 -12
-54 -23 -110 -32 -127 -19 -168 -56 -168 -156 0 -70 24 -115 78 -144 94 -53
204 -12 185 67 -11 43 -34 61 -71 54 -32 -6 -33 -5 -30 22 3 24 8 29 43 34 22
3 55 9 73 13 31 7 32 7 32 -26 2 -135 5 -150 30 -170 18 -15 33 -18 60 -14 57
9 60 20 60 223 0 228 -6 246 -105 293 -43 21 -130 25 -197 9z"/>
<path d="M4899 8699 c-18 -22 -43 -56 -56 -75 -12 -19 -28 -40 -33 -47 -40
-45 -210 -278 -210 -286 0 -6 -4 -11 -9 -11 -4 0 -21 -19 -37 -42 -16 -24 -34
-50 -41 -58 -8 -8 -41 -53 -74 -100 -33 -47 -67 -94 -75 -105 -109 -150 -159
-220 -232 -328 -48 -70 -91 -135 -97 -145 -5 -9 -26 -39 -45 -67 -19 -27 -42
-62 -50 -76 -8 -14 -55 -88 -103 -165 -48 -76 -92 -146 -97 -154 -60 -103
-162 -289 -185 -337 -5 -13 -13 -23 -17 -23 -5 0 -8 -4 -8 -9 0 -6 -33 -79
-74 -163 -41 -84 -88 -187 -106 -228 -17 -41 -35 -84 -41 -95 -16 -34 -126
-347 -134 -384 -3 -9 -12 -43 -21 -76 -9 -33 -17 -67 -19 -75 -2 -8 -10 -40
-18 -70 -9 -30 -18 -75 -21 -100 -7 -49 -13 -83 -20 -108 -13 -47 -21 -190
-21 -397 0 -244 7 -351 30 -427 7 -25 11 -48 9 -51 -3 -3 2 -31 11 -63 9 -33
18 -69 21 -81 10 -48 78 -241 104 -298 15 -33 37 -81 49 -107 50 -111 159
-279 263 -403 31 -37 198 -205 205 -205 3 0 13 -7 22 -15 28 -27 134 -105 143
-105 4 0 17 -9 29 -21 12 -12 26 -22 33 -23 6 -1 38 -18 71 -37 33 -19 84 -44
113 -54 28 -10 52 -23 52 -27 0 -4 9 -8 20 -8 11 0 39 -9 63 -20 23 -10 53
-21 67 -22 14 -2 31 -7 38 -11 6 -5 12 -5 12 -1 0 3 11 -1 24 -9 13 -9 33 -14
45 -12 11 2 23 0 26 -5 3 -4 13 -7 23 -6 9 2 33 -2 52 -9 19 -7 46 -11 60 -10
14 1 32 -2 42 -6 9 -5 49 -11 90 -13 40 -2 81 -7 91 -11 31 -13 423 7 456 24
9 4 32 7 51 6 19 -1 46 3 60 8 14 5 39 11 55 14 17 2 55 13 86 24 30 10 62 19
71 19 8 0 40 9 69 21 30 12 63 25 74 29 33 13 188 88 220 108 58 34 150 95
155 102 3 4 13 11 23 17 47 25 241 213 299 290 126 164 217 309 253 401 10 23
20 42 24 42 4 0 7 9 8 19 1 10 10 39 21 63 10 23 23 52 27 63 7 17 38 122 50
165 2 8 4 15 5 15 2 0 5 16 13 57 3 15 8 31 11 36 2 4 7 26 10 48 2 21 9 59
15 84 23 102 40 470 22 470 -6 0 -11 -7 -11 -15 0 -8 -3 -15 -7 -15 -5 0 -17
-21 -27 -48 -46 -110 -223 -398 -278 -450 -10 -9 -18 -20 -18 -25 0 -22 -294
-317 -316 -317 -8 0 -14 -6 -14 -12 0 -7 -11 -20 -24 -28 -45 -29 -141 -95
-146 -101 -9 -12 -299 -149 -315 -149 -8 0 -15 -5 -15 -10 0 -6 -6 -10 -12 -9
-12 2 -70 -12 -128 -32 -14 -4 -50 -11 -80 -14 -30 -3 -63 -9 -73 -11 -25 -8
-286 -8 -323 -1 -16 4 -49 9 -74 12 -71 10 -190 42 -230 62 -14 7 -29 13 -33
13 -9 0 -118 53 -152 73 -286 173 -454 400 -534 723 -10 39 -21 75 -25 82 -3
6 -9 37 -12 69 -3 32 -7 65 -10 73 -24 71 -24 486 1 695 2 22 7 67 9 100 3 33
10 83 15 110 5 28 12 70 16 95 3 25 8 56 10 70 2 14 7 45 10 69 4 23 10 53 14
65 5 11 12 46 15 76 4 30 11 75 16 100 6 25 12 56 14 70 3 14 8 36 11 50 6 27
22 99 31 140 2 14 7 32 9 40 2 8 7 31 10 50 5 31 16 72 31 120 3 8 5 15 5 15
0 0 20 81 24 95 2 8 17 67 34 130 16 63 35 129 41 145 6 17 10 30 9 30 -4 0
33 120 40 130 4 6 13 37 21 70 7 33 16 62 20 65 5 3 11 21 13 40 3 19 6 35 7
35 1 0 3 7 5 15 1 8 12 42 24 75 12 33 26 74 32 90 6 17 15 46 20 65 6 19 17
49 25 67 8 17 14 37 14 45 0 7 6 22 14 33 7 11 17 36 20 55 7 35 20 76 36 115
5 11 14 38 21 60 6 22 15 45 19 50 4 6 17 42 29 80 13 39 26 79 31 90 19 44
60 154 60 160 0 4 6 21 14 38 37 80 50 114 52 136 2 13 5 30 8 38 9 23 -1 15
-35 -28z"/>
<path d="M5057 8723 c-4 -3 -7 -14 -7 -23 0 -17 -26 -109 -59 -210 -21 -62
-39 -122 -69 -225 -11 -38 -30 -104 -42 -145 -12 -41 -24 -87 -25 -102 -2 -15
-9 -46 -16 -70 -6 -24 -13 -54 -15 -68 -3 -14 -8 -34 -11 -45 -4 -11 -8 -25
-9 -31 -1 -6 -10 -38 -20 -70 -10 -33 -18 -66 -18 -74 -1 -8 -11 -46 -23 -85
-12 -38 -42 -140 -67 -225 -66 -221 -72 -243 -111 -365 -60 -194 -164 -577
-180 -670 -4 -22 -10 -44 -13 -50 -7 -12 -10 -25 -18 -80 -2 -22 -7 -47 -9
-55 -3 -8 -7 -32 -11 -54 -3 -21 -8 -48 -10 -60 -7 -36 -15 -90 -28 -201 -12
-94 -20 -233 -20 -325 0 -108 12 -309 19 -320 2 -3 7 -37 10 -75 4 -39 9 -73
12 -78 2 -4 6 -17 9 -30 3 -20 6 -31 18 -84 2 -10 12 -44 21 -77 9 -32 18 -64
19 -70 1 -6 12 -33 24 -60 12 -27 22 -53 22 -59 0 -21 83 -173 138 -251 118
-168 252 -271 424 -327 35 -11 79 -22 98 -24 176 -20 202 -21 260 -12 19 4 60
9 90 11 30 3 98 17 150 32 52 14 109 30 126 34 18 4 42 15 55 24 13 9 31 16
41 16 10 0 18 5 18 10 0 6 7 10 15 10 8 0 15 4 15 8 0 5 6 9 13 9 18 1 41 7
47 14 3 3 34 25 70 49 36 24 70 49 76 54 7 6 24 20 40 31 58 42 162 142 248
240 15 17 34 39 44 50 10 11 49 67 86 125 38 58 79 121 92 141 13 19 24 40 24
46 0 7 10 19 22 27 12 9 19 16 14 16 -5 0 -3 7 4 15 7 8 9 15 6 15 -4 0 0 7 8
16 9 8 16 23 16 33 0 10 3 20 6 24 10 10 94 201 94 214 0 8 7 16 15 19 8 4 13
10 10 14 -6 9 23 99 38 118 6 7 12 26 14 42 1 15 10 49 18 74 9 26 13 51 10
56 -3 6 -8 18 -10 27 -21 89 -31 125 -66 237 -22 71 -55 168 -74 215 -19 47
-35 92 -35 101 0 9 -4 20 -9 26 -5 5 -28 52 -51 104 -59 134 -211 442 -228
462 -7 9 -14 23 -16 31 -1 8 -7 21 -12 28 -6 8 -64 104 -129 214 -65 110 -121
202 -125 205 -3 3 -21 30 -40 60 -77 126 -256 389 -401 592 -56 78 -122 171
-147 207 -25 36 -49 68 -54 69 -4 2 -8 8 -8 14 0 8 -30 48 -105 140 -8 10 -27
37 -42 60 -15 23 -36 50 -45 60 -10 10 -18 25 -18 33 0 8 -4 15 -9 15 -9 0
-117 135 -154 193 -18 27 -28 33 -40 20z m393 -1305 c96 0 180 0 185 2 6 1 26
2 45 1 30 -1 39 -7 63 -45 15 -24 27 -50 27 -58 0 -8 6 -28 14 -44 24 -47 131
-315 207 -514 70 -182 100 -261 122 -310 5 -14 11 -29 13 -35 2 -12 61 -162
74 -190 5 -11 16 -42 25 -70 9 -27 20 -54 25 -60 4 -5 12 -26 18 -45 10 -34
54 -152 130 -350 20 -52 37 -97 38 -100 0 -3 3 -12 6 -20 37 -97 69 -187 73
-207 4 -17 -2 -26 -25 -38 -25 -13 -70 -16 -238 -17 -114 -1 -227 0 -252 1
-55 4 -107 25 -114 49 -9 30 -29 107 -31 117 -9 39 -37 120 -45 130 -11 14
-124 18 -415 16 -216 -1 -256 -6 -277 -31 -10 -12 -18 -31 -18 -41 0 -10 -4
-28 -9 -41 -6 -13 -19 -55 -31 -95 -25 -84 -41 -98 -120 -103 -171 -10 -411
-2 -467 15 -22 7 -32 43 -16 59 4 3 8 15 10 26 1 10 10 38 18 62 9 24 18 51
20 62 2 10 9 24 16 32 6 8 9 14 6 14 -4 0 5 30 20 68 14 37 36 96 48 132 13
36 42 117 65 180 23 63 51 140 61 170 11 30 22 62 26 70 3 8 7 21 9 28 1 6 12
31 23 55 12 24 21 49 21 55 0 6 11 40 25 74 13 35 43 115 65 178 23 63 50 135
61 160 11 25 21 52 23 60 1 8 7 25 14 37 7 12 12 31 12 42 0 12 5 21 11 21 5
0 8 4 5 8 -2 4 4 27 15 51 10 24 19 48 19 55 0 6 9 29 19 50 11 21 23 52 27
69 3 18 15 49 24 70 10 21 22 52 26 70 10 42 9 38 22 70 7 16 12 32 12 37 0 5
10 16 21 24 16 11 28 12 48 5 14 -6 105 -11 201 -11z"/>
<path d="M5445 6653 c-10 -27 -23 -61 -30 -78 -35 -82 -127 -376 -127 -403 -1
-45 13 -49 177 -52 167 -4 178 1 171 80 -2 27 -9 58 -15 69 -7 12 -16 47 -22
78 -5 32 -14 67 -19 78 -5 11 -26 70 -46 130 -55 167 -61 173 -89 98z"/>
<path d="M7503 7202 c-41 -4 -42 -20 -8 -139 24 -82 95 -241 119 -267 6 -6 28
-33 48 -61 36 -49 120 -135 132 -135 4 0 17 -9 28 -20 37 -34 214 -120 262
-126 45 -7 46 -6 48 22 2 39 -1 66 -9 84 -7 18 -9 25 -17 70 -34 194 -134 366
-278 477 -68 52 -242 103 -325 95z"/>
<path d="M2330 7169 c-55 -19 -123 -51 -130 -59 -3 -4 -10 -9 -17 -11 -33 -11
-125 -102 -166 -164 -39 -60 -97 -174 -96 -190 0 -3 -6 -29 -15 -58 -16 -55
-22 -85 -32 -157 -13 -87 -10 -100 22 -94 46 8 148 47 162 61 7 7 18 13 25 13
12 0 76 42 115 75 13 11 25 18 27 15 2 -3 15 9 29 25 14 17 41 48 62 70 85 92
162 246 193 386 19 84 20 99 8 100 -93 5 -149 2 -187 -12z"/>
<path d="M8503 6723 c-46 -107 -64 -173 -89 -318 -11 -70 -6 -141 19 -270 20
-97 86 -256 123 -293 8 -7 26 -29 40 -48 22 -29 29 -32 42 -22 21 18 122 233
127 273 2 11 9 40 15 65 18 70 16 254 -5 325 -9 33 -21 64 -26 70 -5 5 -9 17
-9 27 0 10 -4 18 -8 18 -5 0 -18 17 -30 38 -31 55 -148 162 -177 162 -5 0 -15
-12 -22 -27z"/>
<path d="M1429 6711 c-57 -36 -98 -76 -135 -132 -35 -52 -75 -142 -81 -184 -3
-16 -8 -48 -12 -70 -4 -22 -6 -51 -5 -65 3 -53 14 -146 19 -170 15 -78 108
-297 140 -329 17 -17 43 5 90 80 19 30 38 59 43 64 13 16 70 185 84 250 8 33
13 101 12 150 -1 77 -7 122 -29 230 -8 35 -64 188 -73 197 -4 4 -28 -5 -53
-21z"/>
<path d="M7637 6188 c-7 -20 32 -148 61 -202 63 -116 182 -213 317 -260 44
-16 87 -31 95 -33 34 -13 352 -19 369 -8 18 10 13 38 -14 77 -14 20 -25 41
-25 45 0 26 -211 243 -236 243 -8 0 -14 5 -14 10 0 6 -7 10 -15 10 -8 0 -15 5
-15 10 0 6 -5 10 -12 10 -6 0 -34 11 -62 24 -93 44 -140 58 -236 72 -122 17
-207 18 -213 2z"/>
<path d="M2145 6175 c-5 -2 -42 -10 -81 -19 -40 -9 -92 -26 -115 -38 -24 -12
-49 -23 -56 -24 -24 -4 -172 -107 -216 -150 -61 -59 -153 -186 -162 -224 -1
-3 -5 -13 -10 -23 -4 -10 -4 -21 -1 -25 16 -16 311 -6 406 13 59 13 240 101
240 117 0 4 4 8 10 8 14 0 100 92 100 108 0 6 4 12 8 12 20 0 79 146 88 215
l4 35 -102 -1 c-57 0 -107 -2 -113 -4z"/>
<path d="M8577 5654 c-38 -20 -47 -29 -42 -42 11 -26 66 -175 70 -192 27 -93
37 -128 40 -143 2 -9 7 -22 10 -27 3 -5 8 -18 10 -27 2 -10 17 -81 34 -157 36
-162 38 -181 15 -172 -9 3 -18 6 -20 6 -2 0 -4 4 -4 9 0 32 -142 195 -204 237
-110 72 -160 99 -244 128 -111 39 -162 50 -173 39 -11 -11 -14 -117 -5 -160
13 -61 60 -170 96 -219 43 -57 175 -169 219 -185 14 -6 43 -19 64 -30 21 -10
44 -19 52 -19 8 0 15 -4 15 -8 0 -4 8 -8 18 -9 30 -3 71 -11 81 -17 9 -6 24
-9 116 -21 l50 -7 0 -47 c0 -25 4 -89 8 -141 8 -99 10 -430 3 -465 -3 -11 -5
-28 -5 -37 -2 -32 -32 -19 -48 20 -8 20 -18 39 -22 42 -3 3 -14 21 -24 40 -23
45 -112 148 -172 200 -44 38 -122 90 -134 90 -6 0 -11 4 -11 8 0 14 -80 46
-89 36 -5 -5 -17 -44 -26 -87 -31 -143 -1 -291 85 -420 57 -85 169 -192 238
-228 15 -8 29 -16 32 -19 11 -11 72 -40 84 -40 16 0 49 -36 43 -47 -2 -4 -7
-30 -11 -58 -3 -27 -24 -122 -46 -210 -22 -88 -42 -168 -44 -177 -3 -9 -9 -26
-15 -37 -6 -11 -11 -31 -11 -44 0 -14 -6 -30 -14 -36 -12 -10 -17 -8 -26 8 -6
12 -9 21 -6 21 3 0 -4 26 -15 58 -11 31 -22 66 -24 76 -3 11 -9 22 -13 25 -5
3 -17 22 -27 41 -57 112 -213 287 -272 304 -18 6 -25 1 -42 -33 -22 -42 -49
-117 -58 -160 -11 -50 -3 -197 12 -221 3 -6 9 -22 11 -36 11 -59 92 -189 176
-283 21 -22 42 -41 47 -41 4 0 19 -13 32 -29 13 -15 34 -31 46 -35 26 -8 36
-31 23 -54 -5 -9 -21 -44 -35 -77 -33 -74 -66 -138 -100 -196 -14 -24 -33 -60
-43 -79 -9 -19 -23 -41 -29 -48 -7 -7 -13 -17 -13 -21 0 -4 -9 -18 -20 -31
-11 -13 -20 -28 -20 -35 0 -7 -8 -19 -19 -29 -27 -25 -42 -2 -31 48 8 36 7 84
-5 211 -2 28 -12 70 -21 95 -9 25 -18 59 -20 77 -8 63 -159 303 -190 303 -20
0 -72 -62 -105 -124 -57 -109 -75 -238 -51 -371 15 -82 66 -206 108 -262 13
-17 24 -35 24 -38 0 -4 27 -39 60 -79 33 -40 60 -80 60 -88 0 -16 -23 -46
-124 -163 -68 -79 -312 -325 -323 -325 -4 0 -17 -14 -28 -30 -23 -34 -55 -40
-55 -11 0 10 11 43 25 73 48 104 63 190 60 333 -1 72 -5 139 -8 150 -30 115
-80 251 -97 265 -4 3 -19 29 -35 57 -15 29 -33 53 -38 53 -22 0 -119 -118
-151 -185 -68 -140 -76 -282 -23 -452 36 -118 178 -350 212 -347 18 2 19 -12
3 -26 -46 -39 -66 -54 -90 -68 -16 -9 -28 -20 -28 -24 0 -4 -6 -8 -14 -8 -8 0
-16 -3 -18 -7 -4 -10 -85 -73 -93 -73 -4 0 -21 -11 -39 -25 -18 -14 -36 -25
-39 -25 -3 0 -26 -13 -50 -30 -25 -16 -50 -30 -56 -30 -6 0 -11 -4 -11 -10 0
-5 -6 -10 -14 -10 -7 0 -19 -7 -26 -15 -7 -9 -15 -13 -17 -11 -3 3 -27 -9 -53
-25 -51 -31 -105 -51 -114 -42 -5 6 12 44 24 53 12 9 59 103 82 165 22 61 26
75 31 110 2 12 6 25 9 30 19 33 11 265 -12 343 -5 18 -9 33 -8 35 2 10 -26 95
-35 106 -7 8 -10 15 -9 15 8 2 -31 86 -40 86 -50 0 -164 -122 -217 -233 -42
-87 -55 -153 -52 -266 2 -75 25 -197 48 -249 40 -95 68 -157 73 -162 3 -3 13
-19 22 -36 17 -30 17 -32 0 -46 -35 -31 -378 -161 -452 -171 -8 -2 -20 -6 -26
-9 -6 -4 -31 -12 -55 -18 -42 -10 -62 -14 -119 -24 -14 -3 -25 -5 -25 -6 0 -2
-45 -11 -185 -35 -78 -14 -120 -17 -120 -8 0 5 28 33 62 63 70 63 64 56 123
136 25 34 45 67 45 72 0 6 6 15 13 19 19 12 147 278 147 307 0 9 9 42 21 74
11 31 22 67 25 79 10 52 13 69 18 88 19 72 24 100 20 106 -2 4 0 10 6 14 8 5
4 51 -5 63 -2 2 -39 -32 -82 -75 -90 -88 -177 -163 -191 -163 -5 0 -15 -7 -22
-15 -7 -9 -28 -23 -46 -31 -19 -9 -34 -20 -34 -25 0 -5 -7 -9 -15 -9 -8 0 -15
-4 -15 -8 0 -5 -17 -16 -37 -25 -21 -9 -49 -22 -63 -30 -23 -14 -78 -39 -90
-42 -3 0 -27 -11 -54 -23 -26 -12 -67 -27 -90 -34 -52 -15 -195 -89 -232 -120
-94 -80 -160 -188 -180 -293 -4 -22 -8 -44 -9 -50 -1 -5 -3 -16 -3 -22 -1 -7
-6 -13 -11 -13 -8 0 -35 99 -31 115 1 3 -18 41 -41 84 -65 123 -146 200 -269
257 -19 8 -43 20 -54 26 -10 5 -27 11 -38 13 -67 13 -342 144 -390 186 -10 9
-31 22 -46 30 -15 8 -29 16 -32 19 -3 3 -27 23 -55 45 -89 71 -98 79 -161 143
-64 65 -79 67 -69 10 21 -125 40 -210 61 -281 28 -96 53 -161 116 -297 37 -79
106 -190 130 -208 10 -7 18 -18 18 -24 0 -12 96 -108 108 -108 14 0 43 -58 33
-65 -9 -5 -50 -2 -151 9 -14 2 -45 9 -70 16 -54 15 -74 19 -121 25 -20 3 -78
18 -129 34 -51 17 -96 29 -99 28 -14 -3 -238 79 -256 95 -5 4 -19 8 -31 8 -13
0 -26 5 -29 10 -3 5 -14 10 -23 10 -9 0 -29 10 -44 23 l-28 22 35 69 c19 39
39 82 44 98 6 15 14 28 20 28 5 0 9 8 9 17 0 10 9 54 21 98 52 186 31 371 -57
500 -47 69 -59 83 -119 136 -54 47 -67 44 -97 -23 -15 -32 -29 -67 -31 -78 -2
-10 -8 -27 -13 -37 -6 -10 -13 -39 -17 -63 -3 -25 -10 -60 -15 -78 -9 -35 -6
-223 5 -287 4 -22 16 -65 27 -95 11 -30 22 -65 25 -78 3 -12 9 -22 14 -22 5 0
9 -6 9 -13 0 -7 16 -36 35 -64 32 -48 44 -83 29 -83 -8 0 -167 82 -174 90 -5
4 -30 19 -93 54 -12 6 -49 30 -82 51 -33 22 -67 44 -76 50 -34 21 -75 51 -93
67 -11 10 -25 18 -32 18 -7 0 -14 4 -16 8 -1 4 -22 23 -46 42 -23 18 -42 37
-42 41 0 5 9 16 19 26 18 17 91 120 91 129 0 3 11 21 25 42 40 61 96 213 102
277 10 105 5 219 -14 275 -17 52 -80 156 -118 195 -71 72 -69 72 -104 15 -39
-63 -108 -223 -116 -269 -3 -19 -8 -38 -11 -42 -8 -13 -18 -122 -17 -194 0
-117 25 -227 75 -331 43 -91 28 -102 -48 -33 -63 56 -293 286 -334 335 -67 77
-140 172 -140 182 0 5 16 27 35 48 87 95 170 232 211 349 11 31 19 91 22 160
3 98 1 118 -21 181 -14 40 -42 98 -64 130 -21 31 -42 66 -48 76 -16 29 -43 21
-75 -24 -17 -24 -36 -50 -43 -58 -27 -34 -125 -245 -119 -257 1 -2 -6 -22 -15
-45 -12 -32 -16 -82 -17 -195 -1 -84 -4 -155 -8 -158 -7 -7 -46 43 -74 95 -10
19 -22 37 -25 40 -4 3 -15 22 -25 42 -11 20 -43 80 -71 133 -29 54 -57 112
-62 131 -5 19 -16 41 -25 50 -9 8 -16 30 -16 49 0 26 7 38 38 61 37 28 182
170 182 179 0 2 13 24 29 47 31 45 70 134 77 177 3 13 8 31 13 40 15 32 2 233
-17 266 -4 6 -8 19 -10 30 -3 21 -51 95 -61 95 -24 0 -189 -166 -235 -235 -61
-92 -112 -204 -122 -263 -8 -49 -20 -70 -32 -57 -6 6 -24 64 -42 130 -17 66
-38 143 -46 170 -34 121 -66 319 -49 303 4 -4 20 1 34 10 14 10 37 23 51 30
48 23 110 60 123 74 8 7 29 24 48 38 55 41 91 81 140 155 68 104 93 195 91
334 -1 75 -33 181 -54 181 -5 0 -29 -13 -53 -30 -24 -16 -48 -30 -54 -30 -6 0
-11 -4 -11 -10 0 -5 -7 -10 -15 -10 -8 0 -15 -4 -15 -10 0 -5 -4 -10 -10 -10
-17 0 -95 -73 -175 -165 -24 -28 -81 -121 -115 -189 -19 -37 -36 -43 -42 -14
-4 24 0 395 6 563 5 150 6 151 103 161 68 7 75 8 102 23 14 8 40 16 58 18 29
4 198 85 213 102 3 4 29 24 57 46 29 21 53 43 53 48 0 5 8 17 19 26 34 29 97
165 107 231 11 68 8 162 -6 170 -17 11 -173 -36 -255 -77 -148 -74 -236 -144
-319 -258 -17 -22 -32 -42 -35 -45 -4 -3 -11 -14 -17 -24 -14 -26 -34 -32 -34
-10 0 19 41 198 72 313 11 41 22 83 24 95 2 12 17 61 34 109 16 48 30 96 30
107 0 11 3 20 8 20 10 0 32 50 32 72 0 19 -76 62 -92 52 -11 -7 -108 -212
-108 -228 0 -7 -3 -16 -8 -20 -4 -4 -7 -11 -8 -14 0 -4 -8 -24 -17 -45 -9 -21
-28 -75 -43 -120 -27 -81 -53 -128 -55 -97 -1 14 -7 56 -13 90 -13 73 -81 233
-122 287 -13 17 -24 34 -24 38 0 3 -15 25 -32 48 -59 74 -56 73 -90 41 -38
-37 -120 -194 -101 -194 3 0 0 -7 -8 -16 -8 -10 -13 -52 -15 -119 -5 -168 42
-296 169 -467 30 -40 76 -93 101 -118 40 -39 46 -49 40 -74 -3 -15 -8 -36 -9
-45 -2 -9 -4 -16 -5 -16 -1 0 -4 -16 -6 -35 -6 -69 -14 -136 -19 -175 -3 -22
-8 -123 -11 -225 -3 -102 -10 -189 -15 -194 -5 -6 -16 6 -26 30 -29 62 -107
175 -160 229 -54 57 -137 125 -150 125 -5 0 -18 8 -29 19 -11 10 -30 24 -43
30 -19 11 -25 10 -37 -6 -23 -31 -52 -157 -48 -213 4 -65 14 -128 23 -153 6
-15 8 -27 6 -27 -5 0 47 -100 77 -150 7 -12 30 -40 50 -62 21 -23 38 -45 38
-50 0 -4 5 -8 12 -8 6 0 18 -7 27 -15 36 -33 89 -75 96 -75 3 0 25 -13 48 -28
23 -15 63 -38 90 -52 56 -28 69 -41 72 -77 4 -42 16 -117 20 -123 2 -3 6 -23
9 -45 4 -22 22 -103 42 -180 46 -178 48 -191 35 -200 -7 -4 -26 8 -44 27 -18
19 -54 49 -80 68 -27 19 -57 42 -66 50 -9 8 -25 17 -36 18 -10 2 -37 12 -60
22 -22 10 -58 24 -80 31 -22 6 -49 16 -60 20 -11 5 -42 11 -70 14 -27 3 -58 8
-67 11 -10 3 -19 2 -19 -3 -19 -126 34 -280 134 -389 82 -90 240 -178 357
-200 14 -3 34 -8 45 -11 30 -10 44 -12 110 -14 65 -2 100 -19 111 -52 8 -25
91 -195 121 -247 47 -82 67 -115 73 -120 3 -3 11 -15 18 -27 6 -13 18 -32 25
-43 10 -17 9 -22 -3 -30 -9 -6 -20 -4 -30 4 -21 19 -145 67 -189 73 -20 3 -40
9 -46 13 -16 13 -316 10 -357 -3 -47 -15 -50 -40 -11 -106 15 -25 28 -52 29
-59 4 -24 139 -147 189 -172 28 -14 52 -27 55 -30 19 -19 127 -42 219 -47 100
-5 292 10 316 25 29 18 54 11 85 -25 98 -115 256 -281 329 -346 17 -16 31 -33
31 -38 0 -11 -60 -6 -80 6 -20 13 -298 15 -330 3 -14 -5 -39 -11 -56 -12 -33
-4 -89 -21 -141 -43 -17 -7 -35 -13 -40 -13 -5 0 -14 -5 -20 -11 -9 -9 -4 -23
19 -58 77 -117 236 -217 356 -224 6 0 12 -5 12 -10 0 -21 310 16 361 43 10 6
25 10 35 10 9 0 52 18 96 40 l79 41 117 -78 c64 -43 119 -81 120 -85 2 -5 11
-8 20 -8 10 0 28 -9 42 -20 14 -11 31 -20 38 -20 6 0 12 -4 12 -9 0 -5 29 -22
65 -37 36 -16 64 -33 62 -39 -2 -5 -21 -11 -43 -12 -131 -5 -214 -16 -267 -33
-33 -11 -64 -20 -68 -20 -22 0 -206 -99 -242 -130 -12 -10 -33 -28 -47 -39
l-25 -21 48 -45 c41 -39 124 -88 150 -89 4 -1 11 -5 15 -11 4 -5 23 -11 42
-13 51 -4 252 -4 270 1 40 10 120 43 120 49 0 5 8 8 18 8 9 0 28 9 42 20 14
11 30 20 36 20 13 0 89 57 168 124 58 50 103 63 129 37 6 -6 17 -11 24 -11 7
0 32 -9 56 -19 23 -11 51 -21 62 -23 11 -2 22 -5 25 -8 10 -10 208 -70 285
-86 44 -9 97 -22 117 -30 20 -7 65 -16 100 -20 35 -3 66 -8 70 -11 13 -7 121
-24 188 -29 36 -3 72 -7 80 -11 54 -21 649 -19 703 2 17 7 17 8 0 20 -10 7
-49 29 -86 49 -37 19 -99 56 -138 81 -39 25 -75 42 -81 39 -11 -7 -129 -7
-158 -1 -59 13 -140 43 -140 53 0 19 11 22 43 13 65 -19 180 -30 198 -18 9 6
10 9 2 9 -6 0 -18 6 -25 13 -7 6 -36 28 -63 46 -28 19 -52 38 -55 41 -3 4 -28
24 -55 46 -28 21 -57 45 -65 52 -55 47 -64 52 -84 46 -23 -8 -106 -7 -148 2
-19 4 -28 12 -28 25 0 18 6 19 80 15 44 -3 80 -3 80 -1 0 3 -39 44 -87 93 -65
65 -95 88 -116 90 -37 2 -69 20 -61 33 3 6 17 9 30 6 13 -2 24 -1 24 2 0 3
-20 28 -45 55 -25 26 -45 55 -45 62 0 22 28 16 41 -8 l12 -22 8 22 c16 43 39
23 44 -41 2 -18 3 -35 4 -38 2 -9 119 -129 126 -129 8 0 -2 36 -18 68 -9 19
-8 25 3 32 24 15 39 -11 47 -79 6 -61 9 -67 56 -110 28 -25 58 -53 66 -61 9
-8 35 -30 58 -47 l41 -33 -5 38 c-3 20 -14 52 -25 71 -24 42 -18 87 10 72 18
-9 29 -42 55 -161 10 -47 18 -59 57 -88 25 -18 52 -39 60 -46 9 -6 38 -27 65
-46 28 -18 52 -36 55 -39 15 -17 91 -63 96 -58 10 9 -26 117 -62 189 -34 68
-37 102 -7 76 9 -7 33 -49 54 -94 33 -69 43 -100 62 -179 6 -24 22 -37 77 -65
67 -34 92 -37 110 -15 7 8 21 15 31 15 11 0 19 4 19 9 0 5 8 12 18 16 18 5 50
79 44 99 -5 16 99 216 112 216 18 0 28 -27 14 -36 -16 -10 -77 -150 -84 -195
-7 -41 -7 -41 17 -27 13 7 26 16 29 19 3 3 19 13 35 22 17 8 50 33 74 56 24
22 53 44 65 47 12 4 39 22 61 40 32 26 41 40 42 66 1 37 40 165 53 173 4 3 13
-1 18 -8 8 -9 6 -30 -8 -76 -11 -35 -17 -67 -14 -72 3 -6 22 5 43 23 20 18 65
58 99 88 l62 54 0 68 c0 54 3 70 16 75 21 8 31 -10 29 -52 0 -19 2 -35 5 -35
3 0 24 20 48 45 24 25 47 45 52 45 11 0 11 3 15 66 3 50 11 65 30 58 8 -4 13
-10 10 -14 -9 -14 16 -23 28 -11 14 14 37 14 37 0 0 -5 -20 -29 -45 -51 -25
-23 -43 -44 -40 -47 4 -3 22 -4 41 -2 25 2 34 -1 34 -13 0 -16 -20 -24 -75
-30 -16 -2 -33 -4 -37 -5 -8 -1 -31 -24 -98 -97 -82 -89 -82 -84 -1 -79 58 3
71 1 71 -11 0 -20 -37 -32 -96 -32 -27 0 -60 -1 -74 -1 -14 -1 -42 -17 -62
-36 -21 -18 -38 -32 -38 -29 0 3 -27 -16 -60 -42 -33 -26 -60 -50 -60 -54 0
-4 -11 -11 -25 -14 -14 -4 -25 -13 -25 -20 0 -8 -18 -23 -40 -34 -22 -11 -35
-22 -28 -24 24 -9 140 3 175 17 44 19 53 19 53 0 0 -37 -70 -57 -212 -59 -91
-1 -98 -3 -134 -31 -20 -16 -46 -33 -56 -38 -11 -4 -31 -16 -45 -27 -14 -11
-34 -20 -44 -20 -11 0 -19 -4 -19 -9 0 -5 -17 -18 -37 -28 -40 -19 -45 -34
-16 -41 30 -8 507 -8 518 -1 6 4 51 10 100 12 50 3 99 8 110 11 11 3 47 7 80
10 33 2 67 6 75 9 8 3 33 8 55 11 22 3 55 10 73 15 18 5 35 10 37 10 7 1 41 7
110 22 33 6 69 13 80 15 11 1 43 12 71 23 29 11 54 18 57 15 3 -3 16 0 29 7
12 7 36 14 52 16 16 2 34 7 40 12 6 4 36 16 66 26 30 10 64 24 75 31 11 8 29
14 42 14 12 0 24 4 27 9 16 26 49 18 95 -22 27 -23 63 -55 82 -72 36 -31 102
-72 132 -82 9 -3 17 -10 17 -15 0 -5 4 -7 9 -4 5 3 14 -1 21 -9 7 -8 18 -15
25 -15 7 0 30 -8 51 -17 22 -9 48 -18 59 -20 11 -2 34 -6 50 -9 45 -8 149 -11
160 -5 6 3 19 7 30 8 11 2 32 5 47 7 15 2 42 11 59 20 18 9 36 16 42 16 18 0
132 82 139 100 7 19 -6 34 -72 80 -52 37 -217 125 -228 121 -1 -1 -18 5 -37
13 -19 8 -35 13 -35 11 0 -2 -15 1 -32 7 -58 17 -81 20 -185 19 -122 -1 -132
10 -45 52 61 30 118 60 142 77 17 12 54 33 90 52 14 7 32 20 41 30 10 9 33 24
53 33 20 10 36 21 36 27 0 5 16 16 35 24 32 13 39 13 71 -2 20 -10 42 -17 50
-17 8 0 14 -4 14 -9 0 -4 9 -8 19 -8 11 0 21 -4 23 -8 2 -4 44 -21 93 -36 77
-25 108 -29 210 -30 123 -1 190 6 222 23 10 5 39 19 66 31 26 12 47 26 47 31
0 6 4 8 9 5 14 -9 144 127 158 163 11 29 10 32 -17 46 -16 8 -37 15 -48 15
-10 0 -23 5 -29 11 -5 5 -21 11 -34 13 -13 2 -31 6 -39 10 -8 3 -47 12 -85 20
-115 21 -299 11 -387 -23 -51 -19 -40 8 28 72 95 88 141 134 209 213 101 115
145 154 164 145 9 -5 34 -12 56 -15 22 -4 63 -11 90 -16 53 -9 277 -6 295 5 6
3 22 9 37 11 14 3 44 14 66 24 23 11 47 20 54 20 7 0 13 4 13 8 0 5 12 15 27
23 40 21 141 114 142 132 0 4 10 17 21 29 24 26 63 126 56 145 -3 7 -16 13
-28 14 -13 0 -36 2 -53 5 -72 10 -216 11 -266 2 -115 -19 -165 -32 -204 -51
-22 -11 -40 -19 -40 -17 0 2 -9 -2 -21 -8 -12 -6 -26 -7 -34 -2 -11 7 -12 13
-1 36 7 16 21 34 32 42 11 7 17 18 13 23 -3 5 12 38 33 72 21 34 67 119 102
190 35 70 67 128 70 128 3 1 29 2 56 4 28 1 57 5 65 8 8 4 33 8 55 11 51 6
158 39 210 66 21 11 45 20 52 20 7 0 13 3 13 8 0 4 19 19 43 34 42 26 119 103
144 143 33 52 71 133 66 139 -4 3 -2 6 3 6 5 0 10 16 12 35 1 20 8 51 16 69
12 29 12 38 -2 65 -11 23 -20 30 -31 25 -19 -7 -82 -23 -120 -29 -39 -6 -53
-10 -116 -35 -75 -29 -180 -89 -238 -136 -42 -34 -75 -53 -84 -50 -9 4 -13 13
-9 21 3 9 15 48 26 88 11 40 25 86 30 102 5 17 12 46 15 65 3 19 10 60 16 90
6 30 13 71 16 90 3 19 9 42 13 50 5 8 6 27 3 41 -4 24 2 30 74 68 122 66 163
92 163 102 0 5 7 9 16 9 40 0 204 200 241 295 21 52 47 173 45 200 -1 6 -4 35
-7 65 -9 78 -9 80 -29 128 -10 23 -23 42 -28 42 -11 0 -75 -37 -95 -55 -6 -5
-33 -26 -60 -45 -26 -19 -75 -65 -108 -102 -82 -93 -77 -86 -110 -150 -19 -37
-36 -58 -47 -58 -10 0 -18 6 -19 13 0 6 -2 73 -4 147 -2 74 -6 155 -9 180 -3
25 -7 65 -10 90 -12 107 -20 169 -30 230 -5 32 -1 40 52 97 31 33 66 73 77 87
11 15 25 32 30 39 55 64 129 230 142 321 13 90 3 256 -16 256 -4 0 -8 6 -8 14
0 42 -100 196 -127 196 -7 0 -36 -33 -64 -72 -28 -40 -55 -77 -60 -83 -23 -30
-82 -171 -102 -245 -12 -47 -24 -91 -26 -97 -7 -26 -32 0 -45 45 -7 26 -14 49
-14 52 0 3 -4 10 -8 17 -4 6 -19 42 -33 80 -38 101 -45 119 -94 219 l-45 93
-48 -25z"/>
<path d="M2695 3784 c3 -21 7 -46 10 -58 2 -12 7 -43 10 -71 3 -27 8 -59 10
-70 3 -11 7 -31 10 -45 56 -279 102 -446 166 -611 16 -42 29 -80 29 -86 0 -5
15 -41 34 -79 18 -38 37 -80 41 -94 11 -35 98 -199 163 -305 57 -92 163 -238
227 -310 19 -22 35 -43 35 -47 0 -5 3 -8 8 -8 4 0 45 -36 91 -80 47 -44 93
-82 103 -86 10 -3 18 -9 18 -14 0 -8 59 -48 93 -62 9 -4 20 -14 23 -23 4 -8
14 -15 24 -15 9 0 34 -11 54 -25 20 -14 45 -25 54 -25 9 0 28 -9 42 -20 14
-11 31 -20 38 -20 7 0 31 -9 55 -20 23 -10 54 -21 69 -24 14 -2 35 -9 46 -15
11 -6 22 -8 25 -4 4 3 12 1 19 -5 13 -10 59 -20 138 -29 25 -3 50 -9 55 -13
10 -8 370 -7 465 2 82 7 150 19 150 28 0 13 -35 38 -115 81 -44 23 -100 56
-125 72 -25 17 -57 39 -72 49 -15 10 -30 18 -34 18 -3 0 -37 20 -74 45 -37 25
-72 45 -78 45 -6 0 -12 3 -14 8 -1 4 -22 22 -45 40 -28 22 -43 28 -45 20 -6
-17 -244 -24 -318 -9 -30 6 -68 14 -85 17 -64 12 -190 69 -193 88 -3 16 1 17
37 13 22 -2 46 -9 53 -15 7 -6 39 -13 70 -15 32 -3 63 -9 68 -12 6 -4 69 -8
140 -10 148 -3 158 3 83 51 -25 16 -51 34 -57 39 -6 6 -27 22 -46 35 -19 13
-44 32 -54 42 -11 10 -24 18 -28 18 -5 0 -23 14 -41 31 -18 16 -60 51 -94 76
-35 26 -63 50 -63 55 0 4 -6 8 -13 8 -7 0 -20 8 -29 18 -9 9 -25 23 -35 31
-10 8 -41 37 -70 64 l-52 51 -88 3 c-316 13 -339 16 -314 47 10 12 42 15 162
14 83 0 152 2 155 5 3 2 -3 11 -12 19 -9 8 -32 28 -51 44 -52 45 -138 132
-206 208 -90 99 -90 99 -152 102 -31 2 -62 7 -68 12 -7 5 -27 13 -44 17 -23 5
-33 12 -33 26 0 18 25 26 55 19 47 -12 86 -16 90 -10 3 5 -8 23 -25 42 -16 18
-48 53 -70 78 -22 25 -40 50 -40 57 0 21 19 24 46 7 l26 -17 -5 31 c-11 68 45
58 58 -11 3 -18 8 -41 10 -52 2 -11 4 -29 4 -40 2 -22 22 -46 168 -202 52 -57
99 -100 103 -98 10 6 4 52 -16 122 -18 67 -18 83 4 83 25 0 62 -116 66 -203
l2 -67 89 -85 c49 -47 92 -85 96 -85 4 0 18 -13 31 -29 13 -15 29 -30 35 -32
10 -4 84 -62 112 -89 31 -29 91 -72 91 -66 0 20 -26 115 -62 224 -29 88 -38
126 -30 134 16 16 39 3 55 -34 33 -76 88 -260 93 -314 7 -64 16 -76 95 -129
24 -16 49 -35 54 -41 6 -6 26 -22 45 -34 19 -13 37 -27 40 -30 3 -3 23 -17 45
-30 22 -13 76 -52 120 -85 81 -62 250 -175 261 -175 6 0 -1 65 -10 90 -3 8 -8
28 -11 45 -8 50 -59 189 -75 205 -25 25 -90 158 -90 185 0 18 5 25 20 25 11 0
20 -7 20 -15 0 -21 35 -88 54 -104 18 -15 98 -177 120 -242 13 -40 19 -65 30
-124 13 -67 29 -107 50 -120 13 -9 28 -15 32 -13 9 2 58 -22 132 -64 98 -56
90 -56 194 2 37 21 77 41 90 45 30 8 70 28 84 40 6 6 20 60 33 120 19 96 34
133 112 292 83 167 107 202 123 186 13 -13 3 -39 -68 -186 -42 -86 -79 -178
-86 -212 -7 -33 -15 -77 -20 -97 -10 -51 5 -62 44 -35 17 12 33 25 36 28 3 4
19 15 36 25 28 17 154 106 262 186 123 91 163 120 214 155 53 36 57 41 63 88
8 67 26 148 35 160 4 6 10 21 13 35 3 14 17 56 30 95 26 73 48 98 69 77 9 -9
4 -36 -25 -124 -20 -62 -39 -125 -43 -140 -3 -16 -10 -28 -15 -28 -5 0 -9 -13
-9 -30 0 -16 2 -30 4 -30 13 0 75 43 80 55 3 8 11 15 19 15 7 0 33 19 58 43
25 23 64 58 88 77 23 19 81 71 127 114 l84 79 0 55 c0 30 10 90 22 133 17 62
25 79 40 79 22 0 23 -19 4 -86 -21 -72 -28 -124 -18 -124 16 0 251 244 273
284 4 6 9 29 12 51 2 22 9 51 14 65 6 14 8 31 6 38 -3 7 4 12 16 12 17 0 21
-6 21 -34 0 -30 2 -33 25 -28 17 3 25 0 25 -10 0 -14 -26 -55 -45 -73 -23 -20
-74 -92 -70 -97 3 -3 24 -3 48 0 81 9 102 8 102 -7 0 -16 -71 -40 -130 -45
-22 -2 -46 -4 -54 -5 -12 -1 -140 -126 -247 -242 -18 -19 -55 -55 -84 -81 -30
-27 -51 -51 -48 -54 3 -3 74 -5 157 -5 126 0 153 -3 158 -15 8 -22 2 -25 -73
-30 -38 -2 -96 -7 -129 -10 -33 -3 -90 -7 -127 -8 -63 -2 -69 -4 -125 -51 -32
-27 -62 -54 -68 -60 -8 -9 -152 -124 -335 -268 -9 -7 -43 -30 -75 -52 -79 -53
-105 -76 -99 -86 6 -10 248 -4 264 6 5 3 30 8 54 10 25 3 71 14 101 26 44 16
59 18 70 9 8 -7 15 -16 15 -21 0 -9 -96 -56 -132 -64 -13 -2 -46 -11 -73 -19
-111 -31 -253 -39 -366 -22 -56 8 -57 8 -125 -38 -38 -25 -74 -50 -79 -54 -6
-5 -96 -60 -200 -122 -105 -62 -200 -119 -212 -127 -34 -20 -28 -31 20 -37 23
-3 60 -9 82 -12 82 -14 448 -16 495 -3 24 7 57 12 72 11 16 -1 28 1 28 5 0 5
17 9 37 11 21 1 42 7 47 12 6 6 19 10 30 10 19 0 73 15 111 31 49 21 104 37
109 32 3 -4 6 -1 6 5 0 6 33 27 73 47 92 46 100 51 179 108 37 26 70 47 74 47
5 0 20 11 34 25 14 14 46 46 73 71 26 24 47 49 47 54 0 5 8 11 19 15 10 3 30
22 44 43 14 20 44 56 66 80 23 24 41 46 41 51 0 4 8 16 18 27 10 10 41 55 70
99 29 44 57 85 62 92 6 7 10 17 10 22 0 5 6 16 13 23 7 7 28 45 46 83 68 142
141 307 141 316 0 6 11 34 24 62 14 29 30 72 35 97 6 25 24 82 40 127 16 45
34 114 41 153 6 38 16 70 21 70 6 0 8 4 5 8 -2 4 1 36 9 70 7 34 10 62 8 62
-3 0 -1 6 5 13 5 6 13 30 16 52 4 22 9 54 12 70 3 17 7 44 9 60 1 17 6 54 9
83 3 28 3 52 0 52 -4 0 -59 -53 -123 -118 -111 -112 -153 -151 -231 -217 -58
-48 -164 -131 -200 -155 -12 -8 -31 -23 -42 -32 -12 -10 -27 -18 -35 -18 -7 0
-13 -4 -13 -8 0 -4 -26 -23 -57 -42 -32 -19 -60 -37 -63 -40 -9 -11 -105 -63
-265 -144 -166 -84 -191 -95 -261 -120 -23 -8 -55 -21 -71 -30 -17 -8 -41 -17
-54 -19 -13 -2 -41 -11 -63 -20 -21 -9 -44 -17 -52 -17 -7 0 -16 -4 -19 -10
-3 -5 -13 -10 -22 -10 -8 0 -48 -16 -89 -35 -40 -19 -76 -35 -79 -35 -5 0 -61
-38 -150 -102 -94 -69 -228 -220 -281 -318 -10 -19 -23 -41 -28 -49 -12 -15
-66 -142 -66 -153 0 -3 -5 -19 -11 -35 -6 -15 -10 -29 -10 -30 0 -2 -4 -16 -9
-33 -10 -34 -21 -115 -24 -172 -2 -37 -11 -56 -21 -46 -3 3 -8 39 -11 79 -5
73 -9 114 -13 114 -3 0 -5 12 -14 55 -6 33 -59 163 -88 220 -88 172 -275 367
-424 442 -22 12 -42 24 -45 27 -9 11 -171 82 -219 96 -45 13 -146 48 -186 65
-11 5 -46 20 -79 34 -32 14 -65 26 -72 26 -8 0 -14 4 -14 9 0 5 -17 15 -37 22
-21 6 -81 34 -133 62 -52 28 -108 57 -125 66 -16 8 -35 21 -40 28 -6 8 -17 15
-26 16 -8 2 -53 27 -100 57 -87 56 -98 63 -130 93 -10 9 -21 17 -24 17 -8 0
-196 144 -249 192 -27 23 -91 86 -142 138 -140 142 -148 150 -157 150 -5 0 -6
-16 -2 -36z"/>
</g>
</svg>
